# xmcd
#
# Track frame offsets: 
#        150
#        27995
#        53425
#        76548
#        105590
#        128528
#        156018
#        182178
#        203940
#        226905
#
# Disc length: 3408 seconds
#
# Revision: 0
# Processed by: cddbd v1.5.2PL0 Copyright (c) Steve Scherf et al.
# Submitted via: ExactAudioCopy v1.0b3
#
DISCID=6c0d4e0a
DTITLE=Duy Khanh - Tinh Doi Tinh Ban Tinh yeu
DYEAR=1990
DGENRE=
TTITLE0=Dap vo cay dan
TTITLE1=Duy Khanh, Ngoc Lan - Tinh doi (Duyen kiep cam ca)
TTITLE2=Thu nguoi chien binh
TTITLE3=Duy Khanh, Huong Lan - Dem trao ky niem
TTITLE4=Doi toi chi mot nguoi
TTITLE5=Quan nua khuya
TTITLE6=Yeu em vao coi chet
TTITLE7=Huong Lan - Nguoi ban tinh xua
TTITLE8=Trang tan tren he pho
TTITLE9=Loi cam on cuoi cung
EXTD=
EXTT0=
EXTT1=
EXTT2=
EXTT3=
EXTT4=
EXTT5=
EXTT6=
EXTT7=
EXTT8=
EXTT9=
PLAYORDER=
